<svg width="30" height="26" viewBox="0 0 30 26" fill="none" xmlns="http://www.w3.org/2000/svg">
<path d="M27.8332 11.1668L6.08984 11.1668L12.7448 3.17349C12.8989 2.98811 13.015 2.77419 13.0864 2.54396C13.1578 2.31372 13.1832 2.07167 13.161 1.83163C13.1164 1.34685 12.8809 0.899676 12.5065 0.588488C12.1321 0.2773 11.6494 0.127589 11.1646 0.172283C10.6799 0.21698 10.2327 0.452425 9.92151 0.826822L0.75484 11.8268C0.693168 11.9143 0.638019 12.0062 0.589841 12.1018C0.589841 12.1935 0.498174 12.2485 0.461507 12.3402C0.37841 12.5504 0.334901 12.7741 0.333175 13.0002C0.334901 13.2262 0.37841 13.4499 0.461507 13.6602C0.461507 13.7518 0.553174 13.8068 0.589841 13.8985C0.638019 13.9941 0.693168 14.086 0.75484 14.1735L9.92151 25.1735C10.0939 25.3804 10.3097 25.5469 10.5537 25.6609C10.7977 25.775 11.0638 25.8339 11.3332 25.8335C11.7615 25.8343 12.1767 25.6851 12.5065 25.4118C12.6921 25.2579 12.8456 25.0689 12.9581 24.8556C13.0706 24.6423 13.1399 24.4089 13.162 24.1688C13.1841 23.9286 13.1587 23.6865 13.0871 23.4562C13.0155 23.226 12.8992 23.0121 12.7448 22.8268L6.08984 14.8335L27.8332 14.8335C28.3194 14.8335 28.7857 14.6403 29.1295 14.2965C29.4734 13.9527 29.6665 13.4864 29.6665 13.0002C29.6665 12.5139 29.4734 12.0476 29.1295 11.7038C28.7857 11.36 28.3194 11.1668 27.8332 11.1668Z" fill="white"/>
</svg>
